<svg id="visual" viewBox="0 0 3840 2160" width="3840" height="2160" xmlns="http://www.w3.org/2000/svg" xmlns:xlink="http://www.w3.org/1999/xlink" version="1.1"><rect x="0" y="0" width="3840" height="2160" fill="#7ea9cc"></rect><path d="M0 1609L91.5 1591.7C183 1574.3 366 1539.7 548.8 1530.2C731.7 1520.7 914.3 1536.3 1097.2 1502.2C1280 1468 1463 1384 1645.8 1389.2C1828.7 1394.3 2011.3 1488.7 2194.2 1507C2377 1525.3 2560 1467.7 2742.8 1455.5C2925.7 1443.3 3108.3 1476.7 3291.2 1455C3474 1433.3 3657 1356.7 3748.5 1318.3L3840 1280L3840 2161L3748.5 2161C3657 2161 3474 2161 3291.2 2161C3108.3 2161 2925.7 2161 2742.8 2161C2560 2161 2377 2161 2194.2 2161C2011.3 2161 1828.7 2161 1645.8 2161C1463 2161 1280 2161 1097.2 2161C914.3 2161 731.7 2161 548.8 2161C366 2161 183 2161 91.5 2161L0 2161Z" fill="#803c7d"></path><path d="M0 1507L91.5 1508.5C183 1510 366 1513 548.8 1531.2C731.7 1549.3 914.3 1582.7 1097.2 1614.5C1280 1646.3 1463 1676.7 1645.8 1661.3C1828.7 1646 2011.3 1585 2194.2 1563.3C2377 1541.7 2560 1559.3 2742.8 1557.8C2925.7 1556.3 3108.3 1535.7 3291.2 1543.2C3474 1550.7 3657 1586.3 3748.5 1604.2L3840 1622L3840 2161L3748.5 2161C3657 2161 3474 2161 3291.2 2161C3108.3 2161 2925.7 2161 2742.8 2161C2560 2161 2377 2161 2194.2 2161C2011.3 2161 1828.7 2161 1645.8 2161C1463 2161 1280 2161 1097.2 2161C914.3 2161 731.7 2161 548.8 2161C366 2161 183 2161 91.5 2161L0 2161Z" fill="#93387c"></path><path d="M0 1753L91.5 1746.3C183 1739.7 366 1726.3 548.8 1739.2C731.7 1752 914.3 1791 1097.2 1803.7C1280 1816.3 1463 1802.7 1645.8 1775.3C1828.7 1748 2011.3 1707 2194.2 1710C2377 1713 2560 1760 2742.8 1752.8C2925.7 1745.7 3108.3 1684.3 3291.2 1657.8C3474 1631.3 3657 1639.7 3748.5 1643.8L3840 1648L3840 2161L3748.5 2161C3657 2161 3474 2161 3291.2 2161C3108.3 2161 2925.7 2161 2742.8 2161C2560 2161 2377 2161 2194.2 2161C2011.3 2161 1828.7 2161 1645.8 2161C1463 2161 1280 2161 1097.2 2161C914.3 2161 731.7 2161 548.8 2161C366 2161 183 2161 91.5 2161L0 2161Z" fill="#a53278"></path><path d="M0 1853L91.5 1840.5C183 1828 366 1803 548.8 1791.2C731.7 1779.3 914.3 1780.7 1097.2 1790.7C1280 1800.7 1463 1819.3 1645.8 1817.2C1828.7 1815 2011.3 1792 2194.2 1800.8C2377 1809.7 2560 1850.3 2742.8 1847.3C2925.7 1844.3 3108.3 1797.7 3291.2 1780.5C3474 1763.3 3657 1775.7 3748.5 1781.8L3840 1788L3840 2161L3748.5 2161C3657 2161 3474 2161 3291.2 2161C3108.3 2161 2925.7 2161 2742.8 2161C2560 2161 2377 2161 2194.2 2161C2011.3 2161 1828.7 2161 1645.8 2161C1463 2161 1280 2161 1097.2 2161C914.3 2161 731.7 2161 548.8 2161C366 2161 183 2161 91.5 2161L0 2161Z" fill="#b62b71"></path><path d="M0 1891L91.5 1908C183 1925 366 1959 548.8 1978.2C731.7 1997.3 914.3 2001.7 1097.2 2014.2C1280 2026.7 1463 2047.3 1645.8 2047.8C1828.7 2048.3 2011.3 2028.7 2194.2 2019.8C2377 2011 2560 2013 2742.8 2020.2C2925.7 2027.3 3108.3 2039.7 3291.2 2045C3474 2050.3 3657 2048.7 3748.5 2047.8L3840 2047L3840 2161L3748.5 2161C3657 2161 3474 2161 3291.2 2161C3108.3 2161 2925.7 2161 2742.8 2161C2560 2161 2377 2161 2194.2 2161C2011.3 2161 1828.7 2161 1645.8 2161C1463 2161 1280 2161 1097.2 2161C914.3 2161 731.7 2161 548.8 2161C366 2161 183 2161 91.5 2161L0 2161Z" fill="#c62368"></path></svg>