<svg id="visual" viewBox="0 0 900 600" width="900" height="600" xmlns="http://www.w3.org/2000/svg" xmlns:xlink="http://www.w3.org/1999/xlink" version="1.1"><g stroke-width="1" stroke-linejoin="bevel"><path d="M382 294L383 230L283 235Z" fill="#39315e" stroke="#39315e"></path><path d="M283 235L268 289L382 294Z" fill="#2d3056" stroke="#2d3056"></path><path d="M311 101L238 228L283 235Z" fill="#2d3056" stroke="#2d3056"></path><path d="M283 235L238 228L268 289Z" fill="#39315e" stroke="#39315e"></path><path d="M300 399L407 374L382 294Z" fill="#1d2b44" stroke="#1d2b44"></path><path d="M382 294L518 280L383 230Z" fill="#752b6b" stroke="#752b6b"></path><path d="M238 228L198 300L268 289Z" fill="#842669" stroke="#842669"></path><path d="M268 289L300 399L382 294Z" fill="#842669" stroke="#842669"></path><path d="M198 300L300 399L268 289Z" fill="#553068" stroke="#553068"></path><path d="M383 230L311 101L283 235Z" fill="#1d2b44" stroke="#1d2b44"></path><path d="M407 374L518 280L382 294Z" fill="#553068" stroke="#553068"></path><path d="M383 230L437 88L311 101Z" fill="#232e4d" stroke="#232e4d"></path><path d="M518 280L518 181L383 230Z" fill="#39315e" stroke="#39315e"></path><path d="M431 489L465 414L407 374Z" fill="#232e4d" stroke="#232e4d"></path><path d="M407 374L465 414L518 280Z" fill="#2d3056" stroke="#2d3056"></path><path d="M518 181L437 88L383 230Z" fill="#842669" stroke="#842669"></path><path d="M165 113L138 206L238 228Z" fill="#652e6a" stroke="#652e6a"></path><path d="M238 228L138 206L198 300Z" fill="#942065" stroke="#942065"></path><path d="M138 206L126 262L198 300Z" fill="#232e4d" stroke="#232e4d"></path><path d="M198 300L167 402L300 399Z" fill="#232e4d" stroke="#232e4d"></path><path d="M126 262L167 402L198 300Z" fill="#2d3056" stroke="#2d3056"></path><path d="M300 399L431 489L407 374Z" fill="#463164" stroke="#463164"></path><path d="M518 181L518 136L437 88Z" fill="#842669" stroke="#842669"></path><path d="M167 402L238 462L300 399Z" fill="#2d3056" stroke="#2d3056"></path><path d="M210 0L165 113L311 101Z" fill="#1d2b44" stroke="#1d2b44"></path><path d="M311 101L165 113L238 228Z" fill="#752b6b" stroke="#752b6b"></path><path d="M305 539L431 489L300 399Z" fill="#752b6b" stroke="#752b6b"></path><path d="M465 414L581 319L518 280Z" fill="#2d3056" stroke="#2d3056"></path><path d="M518 280L617 223L518 181Z" fill="#463164" stroke="#463164"></path><path d="M518 181L598 127L518 136Z" fill="#1d2b44" stroke="#1d2b44"></path><path d="M621 390L581 319L465 414Z" fill="#942065" stroke="#942065"></path><path d="M409 0L286 0L311 101Z" fill="#842669" stroke="#842669"></path><path d="M460 0L409 0L437 88Z" fill="#1d2b44" stroke="#1d2b44"></path><path d="M437 88L409 0L311 101Z" fill="#752b6b" stroke="#752b6b"></path><path d="M238 462L305 539L300 399Z" fill="#842669" stroke="#842669"></path><path d="M267 600L305 539L238 462Z" fill="#232e4d" stroke="#232e4d"></path><path d="M165 113L110 89L138 206Z" fill="#2d3056" stroke="#2d3056"></path><path d="M0 182L0 306L126 262Z" fill="#2d3056" stroke="#2d3056"></path><path d="M210 0L110 89L165 113Z" fill="#2d3056" stroke="#2d3056"></path><path d="M581 319L617 223L518 280Z" fill="#1d2b44" stroke="#1d2b44"></path><path d="M518 136L460 0L437 88Z" fill="#39315e" stroke="#39315e"></path><path d="M286 0L210 0L311 101Z" fill="#232e4d" stroke="#232e4d"></path><path d="M584 0L460 0L518 136Z" fill="#942065" stroke="#942065"></path><path d="M0 306L68 378L126 262Z" fill="#1d2b44" stroke="#1d2b44"></path><path d="M126 262L68 378L167 402Z" fill="#942065" stroke="#942065"></path><path d="M187 600L267 600L238 462Z" fill="#463164" stroke="#463164"></path><path d="M617 223L598 127L518 181Z" fill="#a2185f" stroke="#a2185f"></path><path d="M480 600L538 486L431 489Z" fill="#2d3056" stroke="#2d3056"></path><path d="M431 489L538 486L465 414Z" fill="#232e4d" stroke="#232e4d"></path><path d="M581 319L687 275L617 223Z" fill="#553068" stroke="#553068"></path><path d="M538 486L621 390L465 414Z" fill="#1d2b44" stroke="#1d2b44"></path><path d="M0 182L126 262L138 206Z" fill="#a2185f" stroke="#a2185f"></path><path d="M0 67L0 182L110 89Z" fill="#652e6a" stroke="#652e6a"></path><path d="M110 89L0 182L138 206Z" fill="#942065" stroke="#942065"></path><path d="M60 487L167 402L68 378Z" fill="#842669" stroke="#842669"></path><path d="M60 487L238 462L167 402Z" fill="#752b6b" stroke="#752b6b"></path><path d="M305 539L410 600L431 489Z" fill="#463164" stroke="#463164"></path><path d="M267 600L410 600L305 539Z" fill="#1d2b44" stroke="#1d2b44"></path><path d="M621 390L687 275L581 319Z" fill="#2d3056" stroke="#2d3056"></path><path d="M617 223L667 126L598 127Z" fill="#39315e" stroke="#39315e"></path><path d="M538 486L601 493L621 390Z" fill="#842669" stroke="#842669"></path><path d="M621 390L713 429L687 275Z" fill="#2d3056" stroke="#2d3056"></path><path d="M574 600L601 493L538 486Z" fill="#a2185f" stroke="#a2185f"></path><path d="M0 411L60 487L68 378Z" fill="#2d3056" stroke="#2d3056"></path><path d="M711 185L667 126L617 223Z" fill="#842669" stroke="#842669"></path><path d="M598 127L584 0L518 136Z" fill="#a2185f" stroke="#a2185f"></path><path d="M668 0L584 0L598 127Z" fill="#942065" stroke="#942065"></path><path d="M210 0L83 0L110 89Z" fill="#752b6b" stroke="#752b6b"></path><path d="M0 306L0 411L68 378Z" fill="#652e6a" stroke="#652e6a"></path><path d="M410 600L480 600L431 489Z" fill="#942065" stroke="#942065"></path><path d="M60 487L187 600L238 462Z" fill="#752b6b" stroke="#752b6b"></path><path d="M687 275L711 185L617 223Z" fill="#2d3056" stroke="#2d3056"></path><path d="M667 126L668 0L598 127Z" fill="#2d3056" stroke="#2d3056"></path><path d="M83 0L0 67L110 89Z" fill="#842669" stroke="#842669"></path><path d="M0 411L0 477L60 487Z" fill="#1d2b44" stroke="#1d2b44"></path><path d="M60 487L102 600L187 600Z" fill="#652e6a" stroke="#652e6a"></path><path d="M0 600L102 600L60 487Z" fill="#842669" stroke="#842669"></path><path d="M723 492L713 429L601 493Z" fill="#1d2b44" stroke="#1d2b44"></path><path d="M601 493L713 429L621 390Z" fill="#39315e" stroke="#39315e"></path><path d="M687 275L765 276L711 185Z" fill="#752b6b" stroke="#752b6b"></path><path d="M480 600L574 600L538 486Z" fill="#2d3056" stroke="#2d3056"></path><path d="M783 0L668 0L667 126Z" fill="#2d3056" stroke="#2d3056"></path><path d="M83 0L0 0L0 67Z" fill="#39315e" stroke="#39315e"></path><path d="M795 390L765 276L687 275Z" fill="#942065" stroke="#942065"></path><path d="M711 185L823 129L667 126Z" fill="#652e6a" stroke="#652e6a"></path><path d="M765 276L779 206L711 185Z" fill="#39315e" stroke="#39315e"></path><path d="M720 600L723 492L601 493Z" fill="#463164" stroke="#463164"></path><path d="M713 429L795 390L687 275Z" fill="#2d3056" stroke="#2d3056"></path><path d="M765 276L900 308L779 206Z" fill="#2d3056" stroke="#2d3056"></path><path d="M0 477L0 600L60 487Z" fill="#842669" stroke="#842669"></path><path d="M723 492L795 390L713 429Z" fill="#842669" stroke="#842669"></path><path d="M900 171L823 129L779 206Z" fill="#2d3056" stroke="#2d3056"></path><path d="M779 206L823 129L711 185Z" fill="#553068" stroke="#553068"></path><path d="M574 600L720 600L601 493Z" fill="#842669" stroke="#842669"></path><path d="M723 492L823 495L795 390Z" fill="#39315e" stroke="#39315e"></path><path d="M823 129L783 0L667 126Z" fill="#2d3056" stroke="#2d3056"></path><path d="M807 600L823 495L723 492Z" fill="#a2185f" stroke="#a2185f"></path><path d="M795 390L900 308L765 276Z" fill="#232e4d" stroke="#232e4d"></path><path d="M900 370L900 308L795 390Z" fill="#942065" stroke="#942065"></path><path d="M823 129L900 87L783 0Z" fill="#2d3056" stroke="#2d3056"></path><path d="M900 308L900 171L779 206Z" fill="#39315e" stroke="#39315e"></path><path d="M823 495L900 370L795 390Z" fill="#a2185f" stroke="#a2185f"></path><path d="M720 600L807 600L723 492Z" fill="#463164" stroke="#463164"></path><path d="M823 495L900 508L900 370Z" fill="#553068" stroke="#553068"></path><path d="M900 171L900 87L823 129Z" fill="#942065" stroke="#942065"></path><path d="M807 600L900 508L823 495Z" fill="#942065" stroke="#942065"></path><path d="M900 87L900 0L783 0Z" fill="#a2185f" stroke="#a2185f"></path><path d="M807 600L900 600L900 508Z" fill="#a2185f" stroke="#a2185f"></path></g></svg>